HIERARCHY
ROOT Hips
{
	OFFSET -0.179506 -22.333345 2.821913
	CHANNELS 6 Xposition Yposition Zposition Zrotation Yrotation Xrotation 
	JOINT LeftUpLeg
	{
		OFFSET 6.951974 -9.140623 -0.681533
		CHANNELS 3 Zrotation Yrotation Xrotation
		JOINT LeftLeg
		{
			OFFSET 3.427654 -37.519855 -0.449580
			CHANNELS 3 Zrotation Yrotation Xrotation
			JOINT LeftFoot
			{
				OFFSET -1.359570 -39.796059 -4.369333
				CHANNELS 3 Zrotation Yrotation Xrotation
				JOINT LeftToe
				{
					OFFSET 2.635814 -5.579078 11.928840
					CHANNELS 3 Zrotation Yrotation Xrotation
					End Site
					{
						OFFSET 0.000000 0.000000 0.000000
					}
				}
			}
		}
	}
	JOINT RightUpLeg
	{
		OFFSET -6.767048 -9.052170 -0.431982
		CHANNELS 3 Zrotation Yrotation Xrotation
		JOINT RightLeg
		{
			OFFSET -3.829005 -38.256897 -0.885003
			CHANNELS 3 Zrotation Yrotation Xrotation
			JOINT RightFoot
			{
				OFFSET 1.577377 -39.841461 -4.231180
				CHANNELS 3 Zrotation Yrotation Xrotation
				JOINT RightToe
				{
					OFFSET -2.537174 -4.814398 12.334795
					CHANNELS 3 Zrotation Yrotation Xrotation
					End Site
					{
						OFFSET 0.000000 0.000000 0.000000
					}
				}
			}
		}
	}
	JOINT Spine
	{
		OFFSET -0.253288 10.896323 -2.669631
		CHANNELS 3 Zrotation Yrotation Xrotation
		JOINT Spine1
		{
			OFFSET 0.548704 13.518043 0.109247
			CHANNELS 3 Zrotation Yrotation Xrotation
			JOINT Spine2
			{
				OFFSET 0.145701 5.292222 2.542457
				CHANNELS 3 Zrotation Yrotation Xrotation
				JOINT Neck
				{
					OFFSET -0.277840 21.387037 -4.285703
					CHANNELS 3 Zrotation Yrotation Xrotation
					JOINT Head
					{
						OFFSET 0.515184 6.496960 5.134897
						CHANNELS 3 Zrotation Yrotation Xrotation
						End Site
						{
							OFFSET 0.000000 0.000000 0.000000
						}
					}
				}
				JOINT LeftShoulder
				{
					OFFSET 7.884473 12.174932 -3.408961
					CHANNELS 3 Zrotation Yrotation Xrotation
					JOINT LeftArm
					{
						OFFSET 9.097692 3.046888 -0.886815
						CHANNELS 3 Zrotation Yrotation Xrotation
						JOINT LeftForeArm
						{
							OFFSET 25.961220 -1.277207 -2.745643
							CHANNELS 3 Zrotation Yrotation Xrotation
							JOINT LeftHand
							{
								OFFSET 24.923361 0.898606 -0.117091
								CHANNELS 3 Zrotation Yrotation Xrotation
								End Site
								{
									OFFSET 0.000000 0.000000 0.000000
								}
							}
						}
					}
				}
				JOINT RightShoulder
				{
					OFFSET -8.175920 11.883285 -3.861528
					CHANNELS 3 Zrotation Yrotation Xrotation
					JOINT RightArm
					{
						OFFSET -9.601238 3.255117 -0.914307
						CHANNELS 3 Zrotation Yrotation Xrotation
						JOINT RightForeArm
						{
							OFFSET -25.374195 -1.332924 -2.140099
							CHANNELS 3 Zrotation Yrotation Xrotation
							JOINT RightHand
							{
								OFFSET -25.529810 0.777228 -0.555919
								CHANNELS 3 Zrotation Yrotation Xrotation
								End Site
								{
									OFFSET 0.000000 0.000000 0.000000
								}
							}
						}
					}
				}
			}
		}
	}
}
MOTION
Frames: 13
Frame Time: 0.033333
-40.510544 -335.057617 98.162842 179.325860 1.230283 90.772813 -1.527136 0.780641 1.654519 1.561559 1.975027 -4.260843 3.312494 14.474476 -3.011770 nan nan nan 1.074028 -0.955067 1.143248 1.379547 0.412321 -3.774743 7.077078 -6.176372 5.719819 nan nan nan -1.846983 2.277918 -1.535589 4.400976 -3.084475 5.337285 0.152228 -0.621317 -2.640485 1.886463 -2.238055 -0.095433 2.791526 -2.784833 -1.319389 -17.045957 7.866385 -2.426236 -67.009666 -3.640815 22.025529 3.390561 -25.837321 -7.989290 -5.574777 -16.199305 -20.193979 18.337050 -2.245699 -3.391745 62.761333 3.349650 19.873171 -1.894767 28.217761 -11.143696 0.741967 10.644636 -26.729395 
-40.467552 -335.103455 98.140686 179.600207 1.103791 91.013799 -1.749637 0.192729 1.565346 2.687095 0.375441 -4.486778 3.300500 13.849153 -2.007595 nan nan nan 1.069446 -0.919378 0.823432 1.227443 0.188062 -3.719137 7.207084 -6.313511 5.665469 nan nan nan -2.089966 2.173924 -1.602598 4.426722 -3.131344 5.167140 0.213834 -0.747437 -2.638016 1.576524 -2.454731 -0.027976 3.183617 -2.722520 -1.227035 -16.903704 7.947830 -2.416426 -67.090064 -3.762768 22.134535 3.170823 -25.705977 -7.838406 -5.063897 -16.363435 -20.521354 18.332150 -2.239926 -3.399021 62.902222 3.692183 20.090196 -1.897260 27.649679 -10.970828 0.259155 10.877428 -26.742297 
-40.463737 -335.022156 98.110970 179.377542 1.189625 90.817305 -1.806986 -0.050172 1.950841 2.924936 0.504558 -4.680350 3.434920 14.146272 -1.857531 nan nan nan 1.200622 -0.872772 1.143952 1.148965 0.313056 -3.895030 7.275443 -6.342873 5.734528 nan nan nan -1.962328 2.284910 -1.531660 4.410391 -3.070870 5.194846 0.210816 -0.662863 -2.452407 1.568174 -2.407316 -0.142037 3.140613 -2.830135 -1.244690 -16.832733 7.871761 -2.457584 -67.228296 -3.779577 22.073164 3.187259 -25.649237 -7.844344 -5.108582 -16.367511 -20.488061 18.344860 -2.040771 -3.271622 62.829088 3.675602 19.977530 -2.051032 27.781574 -11.110559 0.432169 10.910151 -26.565672 
-40.463863 -334.989410 98.091049 179.430762 1.259273 90.724679 -1.754021 -0.116230 2.151286 2.975611 0.454997 -4.834385 3.417344 14.217663 -1.843595 nan nan nan 1.276626 -0.915777 1.338273 1.147473 0.311261 -4.039419 7.326271 -6.357547 5.729751 nan nan nan -1.895560 2.321569 -1.463354 4.425652 -3.087430 5.219785 0.270751 -0.590137 -2.348027 1.507812 -2.357683 -0.343104 3.108846 -2.947082 -1.273962 -16.987274 7.546583 -2.329055 -67.103446 -3.809312 21.887480 3.274624 -25.764416 -8.055185 -5.353807 -16.372408 -20.331189 18.575234 -1.665402 -2.888102 62.404066 3.416320 19.602977 -2.460497 28.505692 -11.239535 0.713914 10.935181 -26.163865 
-40.559612 -334.957397 98.042915 179.417740 1.166976 90.225656 -1.844405 0.445566 2.686933 2.910939 0.648492 -4.859171 3.240507 13.582165 -1.785972 nan nan nan 1.049394 -1.140504 1.901467 1.140579 0.311918 -3.980054 7.557639 -6.013030 5.152132 nan nan nan -1.659048 2.203385 -0.796509 4.261173 -3.004251 4.895049 0.167513 -0.811764 -2.027675 1.681390 -2.090042 -0.264395 2.926132 -2.927373 -1.446061 -16.613420 8.003913 -2.626289 -67.600558 -3.825814 21.888810 3.717126 -25.003140 -7.457716 -7.595317 -17.474592 -19.179338 18.076482 -2.464546 -3.673964 63.044373 3.816494 19.782807 -2.241007 27.854296 -10.231107 2.781864 11.234240 -25.011248 
-40.609760 -334.938110 98.018753 179.495633 1.215655 90.198389 -1.891498 0.353951 2.684126 3.110288 1.001489 -4.760071 2.911074 13.072970 -1.746296 nan nan nan 1.021644 -1.468726 1.896477 1.028858 -0.223502 -3.722259 8.283294 -5.161262 4.592487 nan nan nan -1.672207 2.319254 -0.521207 4.328465 -2.962180 4.755879 0.537884 -0.586038 -2.065671 1.318421 -1.903456 -0.367864 2.937834 -3.550224 -1.695362 -17.074483 7.106615 -2.225507 -68.164849 -4.093898 20.041245 5.244270 -24.034769 -9.607051 -13.523414 -18.572266 -14.681234 19.629121 -1.116970 -1.866663 60.334721 4.209513 17.723768 -5.888533 28.553567 -6.933005 10.471463 12.567310 -12.813271 
-40.612152 -334.918518 98.025642 179.501310 1.283288 90.220748 -1.824940 0.354473 2.666481 3.135229 1.015735 -4.772511 2.895995 13.015494 -1.660677 nan nan nan 1.096131 -1.464099 1.878536 1.095942 -0.282108 -3.884533 8.328750 -5.159919 4.841115 nan nan nan -1.541144 2.305264 -0.553279 4.299793 -2.969129 4.734368 0.528028 -0.571555 -2.049745 1.272673 -2.017225 -0.168442 2.937559 -3.590021 -1.791628 -17.168356 6.984586 -2.159849 -68.197313 -4.037883 19.874554 5.460417 -24.044390 -9.862313 -13.669730 -18.648460 -14.568383 19.552935 -1.049332 -1.791654 60.462282 4.110512 17.589080 -6.010026 28.591537 -6.704366 10.877853 12.655823 -12.592809 
-40.610935 -334.898834 98.030708 179.484744 1.286603 90.235246 -1.806975 0.384967 2.678494 3.114375 1.026498 -4.795696 2.916106 12.962144 -1.660893 nan nan nan 1.103480 -1.463761 1.826936 1.107682 -0.334345 -3.823493 8.490169 -5.215632 5.073358 nan nan nan -1.523617 2.311765 -0.560177 4.286905 -2.938885 4.691236 0.523095 -0.564828 -2.072610 1.286798 -2.128665 0.006430 2.950321 -3.598030 -1.807413 -17.175031 6.894060 -2.075884 -68.214625 -3.937904 19.915604 5.638808 -24.121930 -9.728662 -13.671367 -18.658350 -14.534054 19.437701 -1.018102 -1.750387 60.606658 3.962826 17.653447 -6.121265 28.680883 -6.509783 10.889359 12.739175 -12.877124 
-40.599354 -334.895081 98.046600 179.454154 1.321798 90.254289 -1.756471 0.403503 2.674012 3.098063 1.044250 -4.818832 2.907943 12.995127 -1.630494 nan nan nan 1.161236 -1.402293 1.801887 1.080030 -0.336374 -3.809171 8.516611 -5.238811 5.065402 nan nan nan -1.540990 2.319805 -0.554062 4.297526 -2.897746 4.666265 0.546250 -0.551788 -2.088205 1.337954 -2.127085 0.169208 3.041932 -3.591153 -1.934899 -17.123889 6.882512 -2.077853 -68.288994 -3.900446 20.027316 5.600128 -24.009097 -9.464943 -13.562373 -18.653511 -14.543874 19.309829 -1.090550 -1.808365 60.718771 3.860101 17.713562 -6.063129 28.780544 -6.323870 10.713185 12.795674 -13.093295 
-40.592178 -334.909210 98.050285 179.427452 1.296863 90.284471 -1.796946 0.337680 2.651296 3.125085 0.931005 -4.829440 2.933975 13.098818 -1.556290 nan nan nan 1.145735 -1.364678 1.760289 1.140234 -0.288910 -3.793976 8.344601 -5.329483 4.875759 nan nan nan -1.552322 2.328355 -0.499157 4.270969 -2.877804 4.573595 0.532130 -0.523266 -2.027735 1.358857 -2.190070 0.061885 3.147699 -3.504885 -1.911297 -17.106610 6.904429 -2.167034 -68.281363 -3.927650 20.171026 5.367078 -23.640287 -9.311509 -13.239212 -18.606914 -15.204128 19.250676 -1.212896 -1.988811 60.755639 3.711368 17.781694 -5.893539 28.980691 -6.228943 10.447001 12.754260 -13.280361 
-40.594162 -334.916199 98.040733 179.412705 1.167235 90.321483 -1.981575 0.263116 2.635470 3.135411 0.880582 -4.835022 2.884735 13.085829 -1.490257 nan nan nan 1.010674 -1.418944 1.691467 1.334481 -0.379895 -3.630269 8.244758 -5.328791 4.251025 nan nan nan -1.626937 2.338065 -0.488222 4.202182 -2.880938 4.550209 0.533603 -0.520931 -2.031146 1.325953 -2.289552 -0.113937 3.215652 -3.462411 -1.773216 -17.232439 6.904112 -2.219108 -68.144109 -3.851695 20.283870 5.418762 -23.698084 -9.360604 -12.737166 -18.919845 -15.448351 19.319081 -1.171487 -2.066710 60.644307 3.517397 17.889123 -5.902356 29.192848 -6.329891 10.211271 13.001278 -13.308912 
-40.567215 -334.892700 98.065903 179.334527 1.202928 90.292303 -1.931498 0.354481 2.740120 3.091114 0.804599 -4.906782 2.789217 13.018417 -1.421446 nan nan nan 1.078467 -1.354153 1.751361 1.325776 -0.278320 -3.685781 7.820647 -5.304733 4.007306 nan nan nan -1.590522 2.351109 -0.471983 4.210832 -2.820451 4.678964 0.557779 -0.531586 -2.219235 1.353159 -2.294375 -0.027467 3.114050 -3.507645 -1.755065 -17.373501 6.887733 -2.150322 -68.030249 -3.810791 20.315946 5.495927 -23.721938 -9.433560 -12.473069 -19.053395 -15.633756 19.295355 -1.140601 -2.046888 60.709496 3.426577 17.988825 -6.099053 29.133223 -6.450986 9.928433 13.124703 -13.567087 
-40.529175 -334.876160 98.070427 179.251528 1.242818 90.307618 -1.873562 0.439007 2.769008 3.122723 0.754556 -4.949000 2.756979 12.971755 -1.440695 nan nan nan 1.175660 -1.295430 1.766445 1.299657 -0.208370 -3.732890 7.725670 -5.265516 3.911275 nan nan nan -1.544948 2.350632 -0.540496 4.202297 -2.790370 4.815257 0.535434 -0.522394 -2.332175 1.396109 -2.229861 0.004230 3.075638 -3.546163 -1.756562 -17.408263 6.876557 -2.112846 -67.963457 -3.750768 20.300969 5.572400 -23.802293 -9.529596 -12.492540 -19.071129 -15.749478 19.216774 -1.096965 -1.968839 60.838555 3.385758 18.055538 -6.207274 29.175743 -6.486645 9.788665 13.134775 -13.819764 
